<?xml version="1.0" standalone="no"?>
<!DOCTYPE svg PUBLIC "-//W3C//DTD SVG 20010904//EN"
 "http://www.w3.org/TR/2001/REC-SVG-20010904/DTD/svg10.dtd">
<svg version="1.0" xmlns="http://www.w3.org/2000/svg"
 width="980.000000pt" height="980.000000pt" viewBox="0 0 980.000000 980.000000"
 preserveAspectRatio="xMidYMid meet">

<g transform="translate(0.000000,980.000000) scale(0.100000,-0.100000)"
fill="#000000" stroke="none">
<path d="M4267 6819 c-657 -96 -1166 -594 -1278 -1250 -18 -105 -20 -149 -16
-289 6 -176 24 -281 72 -425 202 -603 777 -1024 1400 -1026 266 -1 493 52 713
166 49 25 94 45 102 45 8 0 242 -227 520 -504 581 -579 559 -561 715 -561 108
1 164 23 235 95 73 73 95 127 95 240 0 153 18 129 -561 710 -277 278 -504 511
-504 518 0 7 25 63 55 125 108 221 155 423 155 663 0 245 -47 450 -154 669
-73 148 -160 269 -286 395 -238 239 -530 384 -863 429 -90 13 -315 13 -400 0z
m451 -448 c711 -177 1042 -973 666 -1602 -32 -54 -84 -118 -149 -184 -149
-152 -293 -237 -492 -292 -89 -25 -114 -28 -268 -28 -147 0 -182 3 -260 24
-309 81 -561 282 -699 558 -183 365 -143 804 104 1131 163 217 419 368 696
412 94 14 307 4 402 -19z"/>
</g>
</svg>
